# xmcd
#
# Track frame offsets:
#	183
#	21563
#	30538
#	47093
#	56880
#	67513
#	81743
#	95683
#	123630
#	146130
#	159770
#	171453
#	184110
#	195715
#	212013
#	224238
#	231890
#
# Disc length: 3359 seconds
#
# Revision: 1
# Processed by: cddbd v1.5.2PL0 Copyright (c) Steve Scherf et al.
# Submitted via: audiograbber 1.83.01
#
DISCID=080d1d11
DTITLE=Alexander Scholl - Homage To INDIA
DYEAR=1994
DGENRE=Bamboo Flute
TTITLE0=Baba
TTITLE1=Awakening
TTITLE2=Shakti
TTITLE3=Vision
TTITLE4=Loving-laughing-joking
TTITLE5=Morning prayer
TTITLE6=Eternal Love
TTITLE7=Timeless
TTITLE8=INDIA
TTITLE9=Meditation
TTITLE10=Lullaby
TTITLE11=Offering
TTITLE12=Evening
TTITLE13=Devotion
TTITLE14=Dancing Cobra
TTITLE15=Rising sun
TTITLE16=Unforgettable
EXTD=
EXTT0=
EXTT1=
EXTT2=
EXTT3=
EXTT4=
EXTT5=
EXTT6=
EXTT7=
EXTT8=
EXTT9=
EXTT10=
EXTT11=
EXTT12=
EXTT13=
EXTT14=
EXTT15=
EXTT16=
PLAYORDER=
